<svg width="53" height="53" viewBox="0 0 53 53" fill="none" xmlns="http://www.w3.org/2000/svg">
<g clip-path="url(#clip0_344_1434)">
<rect width="53" height="53" rx="5" fill="#225410"/>
<mask id="mask0_344_1434" style="mask-type:alpha" maskUnits="userSpaceOnUse" x="0" y="0" width="53" height="53">
<rect width="53" height="53" rx="5" fill="#2FAB01"/>
</mask>
<g mask="url(#mask0_344_1434)">
<path d="M36.9674 12.5822L26.7242 2.33875V18.7857H16.8506L25.6404 27.5756V29.2315H17.1158L25.6404 37.7562V39.5284H17.1158L32.4384 54.8511H55.7144V31.0403L37.519 12.845L36.9674 12.5822Z" fill="#123B03"/>
</g>
<rect x="24.75" y="9.5" width="1.75" height="44.7385" fill="#FFAF17"/>
<rect x="26.5" y="9.5" width="1.75" height="44.7385" fill="#FF8D3E"/>
<path d="M26.5 2C21.563 6 22.1118 13.5 26.5 17V2Z" fill="#FFCD00"/>
<path d="M26.5 2C31.437 6 30.8882 13.5 26.5 17V2Z" fill="#FFAF17"/>
<path d="M37.8313 12.3053C38.4939 18.6247 32.8026 23.54 27.2248 22.9119C26.5967 17.3341 31.5119 11.6427 37.8313 12.3053Z" fill="#FFCD00"/>
<path d="M15.1687 12.3053C14.5061 18.6247 20.1974 23.54 25.7752 22.9119C26.4033 17.3341 21.4881 11.6427 15.1687 12.3053Z" fill="#FFCD00"/>
<path d="M37.8313 22.56C38.4939 28.8794 32.8026 33.7946 27.2248 33.1665C26.5967 27.5887 31.5119 21.8974 37.8313 22.56Z" fill="#FFCD00"/>
<path d="M15.1687 22.56C14.5061 28.8794 20.1974 33.7946 25.7752 33.1665C26.4033 27.5887 21.4881 21.8974 15.1687 22.56Z" fill="#FFCD00"/>
<path d="M37.8313 32.8146C38.4939 39.134 32.8026 44.0493 27.2248 43.4212C26.5967 37.8433 31.5119 32.152 37.8313 32.8146Z" fill="#FFCD00"/>
<path d="M15.1687 32.8146C14.5061 39.134 20.1974 44.0493 25.7752 43.4212C26.4033 37.8433 21.4881 32.152 15.1687 32.8146Z" fill="#FFCD00"/>
</g>
<defs>
<clipPath id="clip0_344_1434">
<rect width="53" height="53" fill="white"/>
</clipPath>
</defs>
</svg>
